# xmcd
#
# Track frame offsets:
#	150
#	19782
#	45835
#	64450
#	87240
#	106550
#	125737
#	149983
#	171885
#	186853
#	204346
#
# Disc length: 3164 seconds
#
# Revision: 0
# Processed by: cddbd v1.5.2PL0 Copyright (c) Steve Scherf et al.
# Submitted via: EasyCDDAExtractor 12.0.0.1
#
DISCID=9a0c5a0b
DTITLE=Arnett Hollow - Night After Night
DYEAR=2009
DGENRE=
TTITLE0=Further We Go
TTITLE1=House on a Hill
TTITLE2=Heard a Whisper
TTITLE3=First Step
TTITLE4=Night After Night
TTITLE5=音楽
TTITLE6=Just Begun
TTITLE7=Movement of the Tides
TTITLE8=Rumba
TTITLE9=Happy Song
TTITLE10=Fiddle Tune
EXTD=
EXTT0=
EXTT1=
EXTT2=
EXTT3=
EXTT4=
EXTT5=
EXTT6=
EXTT7=
EXTT8=
EXTT9=
EXTT10=
PLAYORDER=
